<?xml version="1.0" encoding="utf-8"?>
<!-- Generator: Adobe Illustrator 15.0.0, SVG Export Plug-In . SVG Version: 6.00 Build 0)  -->
<!DOCTYPE svg PUBLIC "-//W3C//DTD SVG 1.1//EN" "http://www.w3.org/Graphics/SVG/1.1/DTD/svg11.dtd">
<svg version="1.1" id="Layer_1" xmlns="http://www.w3.org/2000/svg" xmlns:xlink="http://www.w3.org/1999/xlink" x="0px" y="0px"
	 width="58px" height="41px" viewBox="370.5 602.5 58 41" enable-background="new 370.5 602.5 58 41" xml:space="preserve">
<g>
	<path d="M397.9,625c-0.1-2.3-0.2-5.2-0.2-8h-0.1c-0.6,2.5-1.5,5.3-2.2,7.6l-2.4,7.6h-3.5l-2.1-7.5c-0.6-2.3-1.3-5.1-1.8-7.7h-0.1
		c-0.1,2.6-0.2,5.7-0.3,8.1l-0.4,7.4H381l1.2-19.6h5.9l1.9,6.5c0.6,2.3,1.2,4.7,1.7,7h0.1c0.5-2.3,1.2-4.8,1.9-7l2.1-6.5h5.8l1,19.6
		h-4.3L397.9,625z"/>
	<path d="M405.9,613.2c1.4-0.2,3.3-0.4,6-0.4c2.7,0,4.7,0.5,6,1.6c1.3,1,2.1,2.6,2.1,4.5c0,1.9-0.6,3.6-1.8,4.6
		c-1.5,1.4-3.7,2.1-6.4,2.1c-0.6,0-1.1,0-1.5-0.1v7h-4.4V613.2z M410.3,622.1c0.4,0.1,0.8,0.1,1.5,0.1c2.3,0,3.8-1.2,3.8-3.2
		c0-1.8-1.2-2.9-3.5-2.9c-0.9,0-1.5,0.1-1.8,0.1V622.1z"/>
</g>
</svg>
